<svg width="55" height="68" viewBox="0 0 55 68" fill="none" xmlns="http://www.w3.org/2000/svg">
<path d="M26.2221 5.68403C26.2312 5.68518 26.2404 5.6869 26.2489 5.6869C26.2821 5.6869 26.3135 5.67311 26.3375 5.65299H26.3398L26.4759 5.53462C26.4799 5.53174 26.4788 5.52485 26.4828 5.52197C26.4856 5.51795 26.4913 5.5191 26.4936 5.51623L26.5714 5.41796V5.41681L26.6669 5.30246C26.6772 5.28981 26.6754 5.27372 26.6806 5.25936C26.6829 5.25361 26.6863 5.24844 26.6875 5.24327C26.7098 5.25706 26.7303 5.27487 26.7561 5.27487C26.7881 5.27487 26.8201 5.26395 26.8453 5.24212C26.9041 5.19212 26.911 5.10477 26.8613 5.04616L26.7446 4.90767C26.7378 4.89905 26.7258 4.89905 26.7178 4.89388C26.7086 4.88698 26.7052 4.87492 26.6949 4.86974L26.5188 4.79217C26.5091 4.78815 26.4999 4.79332 26.4902 4.79217C26.4799 4.7893 26.4736 4.78125 26.4633 4.78125H26.21C26.2066 4.78125 26.2038 4.78412 26.2003 4.78527C26.1963 4.78527 26.194 4.78125 26.19 4.7824L25.9162 4.82147C25.907 4.82262 25.9025 4.83124 25.8944 4.83412C25.887 4.83699 25.8779 4.83297 25.8693 4.83699L25.6549 4.95422C25.6549 4.95422 25.6549 4.95537 25.6543 4.95537L25.4834 5.05076L25.3307 5.12661L25.106 5.2312H24.8836C24.8482 5.2312 24.8121 5.245 24.7853 5.27258L24.7458 5.31223C24.6915 5.36682 24.6915 5.45532 24.7458 5.50933C24.7727 5.53634 24.8087 5.5507 24.8442 5.5507C24.8779 5.5507 24.9128 5.53634 24.9391 5.51105H25.1369C25.1563 5.51105 25.1763 5.50703 25.1952 5.49726L25.3948 5.40474C25.3656 5.45761 25.3644 5.52312 25.409 5.56795C25.4359 5.59495 25.4719 5.60932 25.5074 5.60932H25.664C25.6806 5.60932 25.6989 5.6053 25.7149 5.5984L25.7692 5.57657L26.0179 5.64323C26.0208 5.64437 26.0225 5.64437 26.0254 5.64437C26.0259 5.64437 26.0259 5.64552 26.0265 5.64552L26.2221 5.68403ZM25.7887 5.19844L25.9802 5.09385L26.2198 5.05995H26.4342L26.4679 5.07432H26.4633C26.4588 5.07432 26.4548 5.07834 26.4502 5.08006C26.4445 5.08006 26.4405 5.07604 26.4359 5.07719L26.2409 5.11684C26.2369 5.11684 26.2352 5.12259 26.2312 5.12259C26.2272 5.12374 26.2238 5.12144 26.2203 5.12259L26.0117 5.19844H26.0105L25.9047 5.23407L25.6577 5.27257L25.7881 5.19959C25.7881 5.19844 25.7887 5.19844 25.7887 5.19844H25.7887Z" fill="black"/>
<path d="M49.0009 42.8301C49.6077 42.1328 50.1464 41.3818 50.6103 40.5855L54.0726 34.6463C54.7474 33.4935 55.0268 32.1582 54.8682 30.8379L54.8053 30.2989C54.568 28.2838 53.3469 26.5072 51.5318 25.5385C49.7166 24.5699 47.5344 24.5303 45.684 25.4328L43.1336 26.752C42.4507 25.1522 41.5318 23.6606 40.4057 22.3247C39.41 21.1434 38.009 20.3595 36.467 20.1209L34.4717 19.8112C35.2843 18.0075 35.7179 16.0622 35.7475 14.0902C35.7891 11.337 34.6681 8.68938 32.6508 6.7768C32.7225 6.51346 32.7628 6.24272 32.7698 5.97011C32.7698 4.13601 31.7734 2.44165 30.1564 1.52492C28.5395 0.607578 26.5475 0.607578 24.9304 1.52492C23.3128 2.44165 22.3171 4.13601 22.3171 5.97011C22.3221 6.24023 22.3661 6.50851 22.4486 6.76628C20.4239 8.67949 19.2977 11.332 19.34 14.0908C19.3689 16.0534 19.7994 17.9902 20.6044 19.7864L18.4437 20.1215C16.901 20.3601 15.5005 21.1433 14.5049 22.3246C13.3909 23.6462 12.4795 25.1205 11.7991 26.7011L9.21348 25.4246C7.36308 24.5283 5.18526 24.5722 3.37322 25.5414C1.56181 26.5107 0.343204 28.2848 0.106668 30.2982L0.0430981 30.8372C-0.114883 32.1576 0.163944 33.4928 0.838668 34.6456L4.2997 40.5848C4.76294 41.381 5.30235 42.1327 5.9091 42.8294L6.99922 44.0799L7.64373 62.9114L5.61014 64.5755C5.18215 64.9254 4.98451 65.4774 5.09403 66.014C5.20355 66.5499 5.60385 66.9845 6.13633 67.1452L8.20586 67.7708C8.35 67.814 8.49979 67.8363 8.65022 67.8369C8.70057 67.8369 8.75029 67.8344 8.79939 67.8295L13.6659 67.4197C14.1349 67.3708 14.554 67.1112 14.8008 66.7162C15.0475 66.3218 15.0934 65.8366 14.9248 65.4039L16.1848 65.266C16.6588 65.2227 17.0553 64.892 17.1749 64.4389C17.2485 64.1422 17.1906 63.8288 17.0156 63.5766C16.8413 63.3238 16.5662 63.155 16.2585 63.1124L13.0573 62.6852L14.0109 52.1196L17.9522 56.6395L19.41 59.5028C19.4502 59.5814 19.5069 59.6493 19.5774 59.7025L23.2285 62.491C23.773 62.907 24.4905 63.0362 25.1502 62.8359C25.8098 62.635 26.3272 62.1306 26.5374 61.4852L27.4563 58.6578L28.3752 61.4852C28.5848 62.1306 29.1022 62.635 29.7618 62.8359C30.4208 63.0362 31.139 62.9076 31.6834 62.4916L35.3346 59.7031C35.4051 59.65 35.4617 59.5807 35.502 59.5022L36.9597 56.6389L40.8803 52.1431L41.8515 62.6634L38.6528 63.1122C38.345 63.1548 38.0699 63.3236 37.8956 63.5764C37.7206 63.8286 37.6627 64.142 37.7363 64.4387C37.8553 64.8925 38.2518 65.2232 38.7264 65.2664L39.9865 65.4043C39.8178 65.8388 39.865 66.3247 40.1142 66.7197C40.3629 67.1153 40.7846 67.3737 41.2553 67.4201L46.0987 67.8287C46.1516 67.8343 46.2051 67.8367 46.2586 67.8367C46.409 67.8367 46.5594 67.8145 46.7035 67.7712L48.7737 67.1456C49.3056 66.9843 49.7052 66.5503 49.8148 66.0144C49.9243 65.4779 49.726 64.9258 49.2986 64.576L47.2562 62.8841L47.9101 44.0811L49.0009 42.8301ZM46.2247 26.4752C47.7271 25.7476 49.4964 25.7829 50.9673 26.5704C52.4389 27.3579 53.4282 28.7989 53.6197 30.4332L53.6832 30.9723C53.8116 32.0441 53.585 33.129 53.0368 34.0649L52.5931 34.8258C50.0233 34.4345 47.4056 34.4574 44.8432 34.8932L43.1143 35.1875L46.7699 30.4653L45.8208 29.7569L44.4562 31.52L44.2554 30.4815C44.0931 29.5889 43.8614 28.7111 43.5612 27.8544L46.2247 26.4752ZM39.4881 23.0723C41.3361 25.2648 42.574 27.8907 43.082 30.6935L43.4842 32.7754L38.7353 38.913L37.3147 35.0291L36.1283 31.8901C35.6619 30.6631 35.463 29.3526 35.5442 28.0452L36.0805 21.2467L36.2831 21.2782C37.5382 21.4736 38.6779 22.111 39.4881 23.0723ZM35.2855 47.0863L27.63 45.9879C27.5734 45.9798 27.5155 45.9798 27.4588 45.9879L19.6246 47.0882L18.25 42.7234C17.9573 41.7931 17.5425 40.9036 17.0164 40.0777L18.3337 36.4769C20.0414 38.1917 24.6259 42.4075 28.4382 42.4075C32.1102 42.4075 35.4826 38.9644 36.8849 37.3183L37.8944 40.0783C37.3683 40.9042 36.9535 41.7931 36.6608 42.7234L35.2855 47.0863ZM23.0732 23.5549C24.3584 24.879 25.8923 25.721 27.5445 25.721C29.1967 25.721 30.7304 24.8772 32.0158 23.5549V25.8792C32.0158 27.4481 31.1629 28.8977 29.7795 29.6821C28.3961 30.4665 26.6916 30.4665 25.3088 29.6821C23.9254 28.8977 23.0732 27.4481 23.0732 25.8792L23.0732 23.5549ZM27.5438 24.5501C24.3358 24.5501 21.4361 20.1779 20.7091 16.0141C21.4631 12.4108 24.3206 9.80477 27.5438 9.80477C30.8658 9.80477 33.6767 12.267 34.4145 15.8027C33.7511 20.0284 30.806 24.5501 27.5438 24.5501ZM27.5438 2.00775C28.61 2.00899 29.6315 2.42438 30.3874 3.16247C31.1427 3.90055 31.5707 4.90193 31.577 5.94842C30.3861 5.1578 28.982 4.73498 27.5438 4.73498C26.1062 4.73498 24.7013 5.1578 23.5106 5.94842C23.5175 4.90188 23.9455 3.90054 24.7008 3.16247C25.4567 2.42438 26.4781 2.00898 27.5438 2.00775ZM27.5438 5.90587C30.9836 5.90587 33.8499 8.81304 34.4409 12.632C32.9612 10.1811 30.4177 8.63311 27.5438 8.63311C24.6485 8.63311 22.0787 10.2911 20.6077 12.9039C21.1018 8.95135 24.0235 5.90587 27.5438 5.90587ZM21.8805 22.0867V25.8766C21.8805 27.864 22.9599 29.7005 24.7122 30.6938C26.4644 31.6871 28.6232 31.6872 30.3755 30.6938C32.1277 29.7004 33.2071 27.8638 33.2071 25.8766V22.0867C33.4677 21.7078 33.7088 21.3159 33.9291 20.9128L34.8971 21.063L34.3545 27.9641C34.262 29.4371 34.4848 30.9139 35.0098 32.2973L36.1949 35.4314L36.4121 36.0242C35.5756 37.0788 32.0447 41.2353 28.4382 41.2353C24.7719 41.2353 19.9103 36.4137 18.7863 35.2449L19.901 32.2975C20.4253 30.9172 20.6487 29.4454 20.5568 27.9754L20.2572 21.0255L21.1447 20.8877C21.3681 21.3 21.6143 21.6997 21.8805 22.0867ZM15.4234 23.072C16.2348 22.1096 17.3752 21.4717 18.6315 21.2775L19.074 21.2089L19.3679 28.0352C19.4504 29.3463 19.2527 30.6599 18.7851 31.89L17.5955 35.0364L16.1774 38.9122L11.5117 32.8816L11.8314 30.6859C12.3393 27.8863 13.5768 25.2627 15.4234 23.072ZM1.22773 30.9715L1.2913 30.4324C1.43985 29.2011 2.04282 28.0655 2.98508 27.2403C3.92794 26.4156 5.14581 25.9582 6.40841 25.9539C6.48646 25.9539 6.5645 25.9557 6.64255 25.9594C7.35188 25.9897 8.04612 26.1653 8.68244 26.4744L11.3701 27.8009C11.0591 28.6812 10.8193 29.5848 10.6532 30.5022L10.4964 31.5747L9.09097 29.7598L8.1412 30.4682L11.6087 34.9485L9.1489 35.095C7.1348 35.2192 5.16468 35.7323 3.35264 36.6039L1.87416 34.0632C1.32595 33.1273 1.09933 32.0433 1.22773 30.9715ZM12.892 63.8221L15.3983 64.1732L13.9035 64.3358C13.6882 64.3611 13.5013 64.4947 13.41 64.6875C13.3232 64.8816 13.3408 65.1054 13.4566 65.2847L13.7782 65.7594C13.843 65.8515 13.8519 65.9708 13.8021 66.0722C13.7575 66.1711 13.663 66.2397 13.5535 66.2533L8.68761 66.6631C8.64355 66.6675 8.59949 66.6631 8.55795 66.6508L6.48778 66.0252C6.37386 65.9906 6.28826 65.8979 6.26434 65.7829C6.24106 65.6679 6.28385 65.5499 6.37512 65.4744L8.40871 63.8103C8.69887 63.5717 8.86063 63.215 8.84679 62.8441L8.24381 45.5049L12.926 50.8743L11.8699 62.6025C11.8353 63.2083 12.2802 63.7393 12.892 63.8221ZM26.4286 57.9669L25.4015 61.1287C25.3102 61.41 25.0842 61.6301 24.7972 61.7172C24.5102 61.805 24.198 61.7494 23.9601 61.5682L20.4159 58.8595L18.9853 56.0506C18.9633 56.008 18.9362 55.9678 18.9047 55.9319L6.81643 42.068C6.25751 41.4276 5.76154 40.7365 5.33481 40.0046L3.94508 37.6192C5.59793 36.8354 7.38983 36.3748 9.22138 36.2617L12.4766 36.0676L15.472 39.9385C16.2015 40.88 16.7566 41.9396 17.1117 43.0694L20.4174 53.5583C20.4419 53.6374 20.4841 53.7103 20.5395 53.7728L22.7751 56.2609C22.8695 56.366 22.9992 56.4346 23.1408 56.4538L25.6779 56.7975C25.9473 56.8339 26.1858 56.9848 26.3306 57.2104C26.4754 57.436 26.5111 57.7129 26.4286 57.9669ZM27.5723 56.5866C27.5295 56.6534 27.4905 56.7226 27.4558 56.7943C27.4206 56.7232 27.3816 56.6534 27.3394 56.5866C27.0071 56.0686 26.4589 55.7212 25.8408 55.6377L23.5226 55.3237L21.518 53.0927L19.9829 48.2211L27.544 47.1585L34.9295 48.2186L33.3931 53.0922L31.3896 55.3231L29.0715 55.6372C28.4534 55.72 27.904 56.068 27.5723 56.5866ZM36.0057 55.9326C35.9736 55.9684 35.9466 56.0086 35.9252 56.0513L34.4945 58.8602L30.9503 61.5676C30.7131 61.7487 30.4002 61.8044 30.1132 61.7166C29.8262 61.6295 29.6009 61.4094 29.5096 61.1281L28.4818 57.9663C28.3994 57.7123 28.4352 57.4359 28.58 57.2109C28.7248 56.9853 28.9633 56.8345 29.2321 56.798L31.7698 56.4543C31.9108 56.4352 32.0405 56.3659 32.1349 56.2608L34.3705 53.7727C34.4266 53.7109 34.4681 53.6373 34.4926 53.5582L37.7984 43.0694C38.154 41.94 38.7091 40.8799 39.438 39.9384L42.055 36.5572L45.0465 36.0472C47.3294 35.6584 49.6595 35.6151 51.9562 35.9174L49.5752 40.0046C49.1485 40.7365 48.6525 41.4276 48.0942 42.0686L36.0057 55.9326ZM46.5018 63.8109L48.5347 65.4751C48.6266 65.5499 48.6694 65.6686 48.6455 65.7835C48.6222 65.8985 48.5366 65.9912 48.4227 66.0258L46.3525 66.6514C46.3072 66.6644 46.2587 66.6687 46.2115 66.6625L41.3688 66.2539C41.2549 66.2428 41.1555 66.1742 41.107 66.0735C41.0579 65.9721 41.0667 65.8528 41.1303 65.7594L41.4563 65.2785C41.5746 65.1005 41.5904 64.8761 41.4972 64.6838C41.4009 64.4947 41.2159 64.3643 41.0025 64.3364L39.5121 64.1739L42.0158 63.8227C42.6352 63.7356 43.0808 63.1935 43.0361 62.5802L41.9586 50.9008L46.6633 45.5061L46.061 62.839C46.0459 63.213 46.2091 63.5717 46.5018 63.8109Z" fill="#6F55F2"/>
</svg>
