<svg width="64" height="67" viewBox="0 0 64 67" fill="none" xmlns="http://www.w3.org/2000/svg">
<path d="M62.232 28.135C62.0704 27.947 61.842 27.7699 61.5328 27.6534C59.8052 25.9903 57.2261 25.4089 54.7468 26.1467C52.6794 26.765 51.0151 28.225 50.2249 30.0906L49.8447 30.1188C49.6307 28.2642 49.2996 26.5169 48.9356 25.4169C48.9391 25.3338 48.9512 25.2531 48.9454 25.1689C48.1355 17.525 46.9755 5.85319 47.0799 4.86526C47.3083 4.07094 47.2864 0.722873 46.9403 0.244116C46.8203 0.0791354 46.5809 -0.0293158 46.3854 0.00702662C46.2215 0.0312539 45.9994 0.132779 45.8841 0.476007L45.7093 0.975558C45.5795 1.33494 45.5737 1.3632 45.4284 2.09003L45.1475 3.46697C45.0915 3.74098 44.9998 4.16092 44.9092 4.5774C44.78 5.16982 44.6537 5.75418 44.6248 5.9278L44.5844 6.17238C44.2205 8.29976 44.1639 8.78088 44.1628 8.96207L42.8406 25.6698C42.2638 25.9646 41.7619 26.215 41.3991 26.3592C39.0681 27.2914 32.8374 26.4988 30.9155 25.5164C30.642 25.3774 30.3703 25.3647 30.1234 25.4466C30.1079 25.4414 30.0975 25.4293 30.0808 25.4235C26.4824 24.2675 15.8061 42.4665 12.608 48.0678C12.5186 48.2252 12.5129 48.4162 12.5919 48.5794C12.6075 48.6111 12.6202 48.6371 12.6357 48.6677C9.85593 51.3155 6.41898 55.4549 3.88269 58.5134C2.51036 60.1689 1.42644 61.476 1.00306 61.866C0.282002 62.5328 -0.0952585 63.5192 0.0206946 64.4382C0.110106 65.1517 0.490826 65.7395 1.06421 66.051C1.14382 66.0949 1.2338 66.118 1.32437 66.118C1.38321 66.118 7.20132 66.1226 8.57587 66.2293C8.62259 66.2339 8.66874 66.2356 8.71143 66.2356C9.21098 66.2356 9.38231 65.9887 9.43826 65.7724C9.57151 65.2458 9.28656 64.9723 6.90064 63.9162C6.26265 63.6329 5.60042 63.4236 4.91975 63.2891C15.1739 54.1975 15.2333 54.1352 15.2581 54.1092C15.4525 53.9004 15.6284 53.7071 15.8055 53.5127C15.9139 53.4919 16.0184 53.4527 16.0951 53.3835C19.4921 50.2702 25.9592 44.3477 26.0664 44.248C26.604 43.8707 27.2518 43.4023 27.925 42.8953C31.7288 46.1955 36.4792 50.3095 37.2296 50.9585C37.5763 52.1538 38.1826 53.2873 39.0109 54.2431L44.1552 60.18C44.1869 60.2313 44.3167 60.3986 44.5094 60.6357C44.9882 61.227 46.2618 62.7984 46.4303 63.4034C46.7493 64.5473 47.5056 65.521 48.4527 66.0073C48.8813 66.2271 49.2874 66.3102 49.6099 66.2467C50.4613 66.3442 51.5515 66.4388 52.5778 66.4388C53.9778 66.4388 55.2562 66.2629 55.6375 65.6791C55.8342 65.3785 55.829 65.0047 55.623 64.654C55.5555 64.5404 55.4494 64.4527 55.3237 64.4112L51.5211 63.1548C50.9581 62.9419 50.4262 62.6466 49.1825 61.0643L48.0167 58.8659C47.9786 58.2931 47.9175 57.8051 47.8396 57.5611C47.7369 56.8106 48.1961 49.2049 49.0164 38.1066C49.0885 38.0674 49.1641 38.038 49.2339 37.9941C49.813 37.6336 50.0611 36.1955 50.0882 34.3761C50.402 35.2426 50.9252 36.0259 51.6215 36.6674C51.6873 36.8082 51.7657 36.9449 51.8747 37.0706C52.0789 37.3077 52.3074 37.5252 52.5762 37.7363C51.1761 39.0435 49.9994 40.6344 49.3655 42.0951C49.298 42.2514 49.3066 42.4296 49.3897 42.5767C49.4716 42.7255 49.6193 42.8271 49.7877 42.8519C50.3571 42.935 50.9131 42.9701 51.4577 42.9701C52.9593 42.9701 54.3719 42.7013 55.7512 42.44C57.1772 42.1689 58.5322 41.9168 59.9033 41.9624C61.7447 41.9307 63.2721 40.5301 63.2952 38.7223C63.3074 37.7653 62.8788 36.8555 62.1467 36.2309C64.0798 33.7365 64.1479 30.3527 62.2321 28.1343L62.232 28.135ZM45.2554 9.02315C45.2566 9.01219 45.2566 8.97642 45.2577 8.96546C45.2601 8.84548 45.3322 8.29458 45.6633 6.3546L45.7071 6.09675C45.7325 5.93061 45.8559 5.37338 45.9782 4.80864C46.0209 4.61424 46.0636 4.41869 46.1028 4.23698C46.0919 4.34946 46.0798 4.43368 46.0648 4.48155C45.9817 4.64999 45.7285 5.15993 47.8587 25.2607C47.9066 26.0648 47.2403 26.8112 46.401 26.888C45.7849 26.9515 44.7708 26.7184 44.2234 26.2477C44.033 26.0851 43.9315 25.9201 43.9217 25.8324L45.2554 9.02315ZM41.8053 27.3745C42.1722 27.2291 42.6499 26.9921 43.1834 26.7209C43.2775 26.8444 43.3825 26.9644 43.5111 27.0751C44.2333 27.6958 45.3479 27.9888 46.197 27.9888C46.3043 27.9888 46.4046 27.9837 46.5021 27.9744C47.2059 27.9087 47.8277 27.5735 48.269 27.0803C49.1522 30.8678 49.2358 36.4189 48.6567 37.0638C46.3793 38.4834 42.9066 36.4944 41.7657 35.842C41.4795 35.6782 41.3601 35.6095 41.2453 35.5778C41.1807 35.5593 34.9611 34.01 32.3428 34.9421C32.3065 34.8942 32.2661 34.8406 32.2477 34.8164C31.8237 33.973 31.6772 32.0977 31.5462 30.4398C31.4205 28.8368 31.3045 27.6161 31.0651 26.767C32.7425 27.3825 35.7129 27.8653 38.2672 27.8653C39.666 27.8647 40.938 27.7205 41.8056 27.3744L41.8053 27.3745ZM41.4304 46.9412C38.9817 43.7097 34.8065 38.1973 33.047 35.8715C35.0487 35.4123 39.5682 36.2384 40.9082 36.6145C40.9659 36.6398 41.072 36.7027 41.222 36.7881C41.6189 37.0154 42.273 37.3834 43.061 37.7341L44.7033 52.6181C43.1382 49.6744 43.1124 49.6369 43.0783 49.5954L41.5035 47.5522C41.646 47.2459 41.5473 47.104 41.4302 46.9419L41.4304 46.9412ZM3.30408 63.2621C3.1414 63.4063 3.08027 63.6347 3.14775 63.8413C3.21524 64.0478 3.39925 64.1954 3.61788 64.215L3.8094 64.2323C4.72601 64.3108 5.61781 64.5404 6.46058 64.9142C6.58518 64.9701 6.70343 65.0232 6.81361 65.0728C4.85354 65.0336 2.17165 65.0267 1.48526 65.0261C1.21183 64.8207 1.13108 64.4937 1.10742 64.3039C1.03532 63.7293 1.27991 63.1017 1.74889 62.6703C2.22422 62.2308 3.27406 60.9634 4.72657 59.2115C7.16894 56.2668 10.4495 52.3187 13.1485 49.6969C14.0184 51.4297 14.5549 52.3741 14.9033 52.8846C14.7637 53.0375 14.6247 53.1903 14.4857 53.3403C14.2867 53.5226 7.08475 59.9106 3.30402 63.2622L3.30408 63.2621ZM27.62 41.7564C26.8332 42.3552 26.0619 42.917 25.4354 43.356C25.3991 43.382 25.3841 43.3929 15.7571 52.2118C15.31 51.5046 14.4459 49.8646 13.7029 48.359C20.0247 37.3211 27.9044 25.8477 29.7403 26.4606C30.1608 26.7138 30.3477 29.1008 30.459 30.5256C30.6067 32.3997 30.7584 34.3363 31.3018 35.3619C31.3041 35.3665 31.3064 35.3694 31.307 35.3728C31.3329 35.419 31.3433 35.4363 40.356 47.3314C39.9562 47.8189 38.803 48.9235 37.6973 49.9145C36.397 48.7891 31.8554 44.8549 28.3097 41.778C28.113 41.6084 27.8268 41.5986 27.6203 41.7561L27.62 41.7564ZM45.36 59.9454C45.2192 59.7717 45.1154 59.6471 45.0341 59.5346L39.8373 53.5267C39.1497 52.7324 38.6409 51.7979 38.3318 50.812C39.5466 49.7304 40.3317 48.9816 40.8198 48.4538L42.18 50.2132C42.2607 50.354 43.4029 52.4958 45.2321 55.9447C45.2592 56.0814 45.2834 56.2026 45.314 56.3554L45.3532 56.5533C45.3861 56.7304 45.5355 57.328 45.6855 57.9267C45.787 58.3323 45.8885 58.7384 45.952 59.0066L46.2779 60.3957C46.4406 61.104 46.4475 61.1323 46.5894 61.4905L46.6234 61.5799C46.2467 61.0498 45.7951 60.4828 45.3601 59.9452L45.36 59.9454ZM46.8125 57.9236C46.8159 57.9311 46.8188 57.938 46.8234 57.9443C46.8379 57.9835 46.8494 58.0458 46.8615 58.1237C46.8454 58.058 46.8286 57.9905 46.8125 57.9235V57.9236ZM51.155 64.1818L54.2988 65.2213C53.4346 65.3874 51.5299 65.369 49.6361 65.148C49.5531 65.1417 49.4844 65.1434 49.4042 65.1723C49.1573 65.2063 47.9136 64.6456 47.4833 63.1082C47.4274 62.9063 47.3126 62.6669 47.1632 62.4056C47.2081 62.4218 47.2514 62.4316 47.2912 62.4374C47.312 62.4408 47.3304 62.442 47.3512 62.442C47.5381 62.442 47.7348 62.3381 47.8386 62.1876C47.9327 62.0509 47.9927 61.6782 48.0267 61.2017L48.2695 61.6551C49.6096 63.3742 50.285 63.853 51.1549 64.1817L51.155 64.1818ZM46.7698 57.7598C46.7623 57.7269 46.7536 57.694 46.7467 57.6617C46.6025 57.0901 46.4595 56.5178 46.4277 56.3482L46.3862 56.1406C45.9674 54.0656 45.8964 53.5869 45.8878 53.4317L44.2104 38.1903C45.0156 38.4603 45.8931 38.6547 46.7675 38.6547C47.1447 38.6547 47.5203 38.6108 47.8889 38.5289C46.7271 54.3122 46.6913 57.1476 46.7698 57.7604V57.7598ZM51.0269 33.757L50.971 33.5199C50.9075 33.2609 50.6554 33.0774 50.4005 33.1022L50.0728 33.1265C50.052 32.5006 50.0128 31.8557 49.9557 31.2055L50.6497 31.1542C50.8648 31.138 51.0506 30.9956 51.1238 30.7925C51.7312 29.0931 53.2022 27.7479 55.0608 27.193C56.676 26.7101 58.3892 26.908 59.7419 27.6706C59.5013 27.7352 59.2481 27.816 58.9672 27.9319C57.8037 28.4118 56.4492 29.2904 55.1588 30.4048C53.5973 31.7524 52.0837 33.4899 51.6071 34.9867C51.3551 34.606 51.1572 34.193 51.0268 33.7569L51.0269 33.757ZM61.0751 36.8067C61.7811 37.2065 62.2115 37.9344 62.2016 38.7068C62.1861 39.913 61.1362 40.8366 59.93 40.8683C58.4318 40.8181 56.9684 41.0933 55.547 41.3644C53.9889 41.6603 52.3888 41.9707 50.6974 41.8484C51.4035 40.5482 52.5243 39.1863 53.8061 38.0972C53.9394 37.9847 54.0103 37.8163 53.9982 37.6426C53.9849 37.4701 53.8909 37.3115 53.7456 37.2186C53.2997 36.9377 52.9686 36.6626 52.702 36.3534C52.405 36.0078 52.5457 35.2833 53.092 34.3689C53.6711 33.3998 54.6841 32.2554 55.8718 31.2315C58.2715 29.1606 60.7553 28.0922 61.4032 28.8473C63.0806 30.7889 62.8829 33.8485 60.9423 35.9622C60.8287 36.0845 60.7796 36.2518 60.8044 36.4167C60.831 36.5806 60.9308 36.7242 61.075 36.8067L61.0751 36.8067Z" fill="#6F55F2"/>
</svg>
