<svg width="38" height="67" viewBox="0 0 38 67" fill="none" xmlns="http://www.w3.org/2000/svg">
<path d="M0.318037 12.5791C1.03124 18.5521 2.51741 30.9823 4.23948 34.8152L4.24112 34.8136C4.29353 34.9374 4.37132 35.0514 4.46303 35.1312C4.54246 35.2005 4.64481 35.2885 4.94861 35.3593C4.79466 35.8871 4.63253 36.4206 4.50315 36.924C4.26405 37.8664 4.90766 41.3093 6.43398 48.9405C7.44525 54.0012 8.83229 60.9344 8.66774 61.7684C7.67774 63.1466 7.87181 64.5671 8.50479 65.3636C9.05505 66.0576 9.91812 66.302 10.7878 66.0258C11.4715 66.0755 12.9472 66.1643 14.5675 66.1643C16.9504 66.1643 19.6509 65.9696 20.6328 65.1674C20.8596 64.9825 21.0021 64.5891 20.9383 64.3048C20.867 63.9888 20.7597 63.5098 18.2345 62.8835C16.3626 62.6831 12.3135 61.726 12.4707 60.1352L12.677 50.006C13.423 51.1153 14.3958 52.0504 15.5545 52.7444C15.7936 53.2013 16.0991 53.5125 16.3734 53.6966C17.7908 54.6406 19.462 55.1203 21.1817 55.1203C22.1152 55.1203 23.0618 54.977 23.9911 54.6911L25.1269 59.8983C25.2137 60.2795 25.2382 60.6371 25.2653 60.9735C25.3463 62.0104 25.4356 63.1848 27.1036 64.0026L31.0143 65.5021C32.3859 66.1073 34.6501 67 36.0445 67C36.3286 67 36.5751 66.9633 36.7716 66.8795C37.0803 66.7483 37.2916 66.3965 37.2621 66.0633C37.1581 64.8798 31.9232 61.7725 30.0537 61.3375C29.6238 61.2389 29.6099 59.7174 29.6026 58.8998C29.5977 58.372 29.5903 57.8645 29.542 57.4817L29.2382 53.5174C31.3386 56.2867 32.331 57.2715 33.0957 57.3993C33.2013 57.4181 33.3053 57.427 33.4093 57.427C33.9366 57.427 34.4239 57.1941 34.8038 56.751C36.2261 55.0983 36.1811 50.1982 34.7064 45.8283L34.5516 45.3591C33.9604 43.5558 33.2906 41.5114 30.9232 41.0837C30.3304 39.5052 29.3224 38.1906 28.0098 37.2108C28.0008 37.043 27.991 36.8744 27.9804 36.7049C28.7525 35.8163 29.2365 34.7118 29.2275 33.7653C29.3192 32.6494 31.3155 6.37678 16.2414 0.471621L16.2365 0.485468C16.1948 0.468363 16.1571 0.443927 16.1121 0.434154C8.91438 -1.0222 4.85542 1.51746 3.07445 3.16029C0.927477 5.14606 -0.258996 7.96844 0.0478947 10.3532C0.11504 10.8827 0.205112 11.6434 0.31812 12.5802L0.318037 12.5791ZM17.9609 64.4015C17.9953 64.4088 18.0305 64.4186 18.0665 64.4276C16.252 64.6727 13.3017 64.6695 10.7403 64.4756C10.6224 64.4667 10.5012 64.4862 10.3882 64.5294C10.1 64.645 9.88136 64.6068 9.72087 64.4072C9.44901 64.0635 9.43264 63.3548 9.92886 62.6633C10.4685 61.9107 10.1352 59.551 7.95461 48.6381C7.0195 43.9588 5.85418 38.1333 6.00821 37.3009C6.15724 36.7145 6.34147 36.093 6.52489 35.4789H6.5732C7.44528 35.4789 8.72919 35.4186 10.5454 35.2704C10.8181 36.5451 11.076 38.0584 11.3192 39.856C11.3192 39.953 11.3102 40.6135 11.2897 41.6382L11.243 41.8052C11.1947 41.9705 11.153 42.1367 11.1186 42.3094C11.1137 42.3322 11.1063 42.3525 11.1014 42.3753C11.0997 42.3859 11.0997 42.3957 11.0981 42.4063C11.0252 42.838 10.9892 43.2754 10.9712 43.712C10.9622 43.8944 10.9573 44.076 10.9573 44.2569C10.9589 44.454 10.9728 44.6519 10.9867 44.849C11.0179 45.389 11.0858 45.9168 11.1947 46.4349L10.9188 60.0422C10.574 63.5121 17.3 64.3363 17.9609 64.4014L17.9609 64.4015ZM13.5464 22.6463C13.6299 22.0525 13.6954 21.5874 13.7372 21.3023C13.7274 21.8814 13.6627 22.3563 13.5464 22.6463ZM16.0168 35.1149C14.6796 35.8944 13.5399 37.0143 12.671 38.3777C12.4335 36.778 12.1854 35.4324 11.9201 34.3044L12.1772 32.4514C13.2155 33.6137 14.6116 34.4241 16.0167 35.1147L16.0168 35.1149ZM12.7423 46.2819C12.739 46.2526 12.7406 46.2249 12.7333 46.1956C12.6088 45.6279 12.5441 45.0618 12.522 44.4998C12.5204 44.4444 12.5146 44.3906 12.5146 44.336C12.5024 43.7716 12.5392 43.2128 12.6326 42.6622C12.6342 42.6549 12.6342 42.6467 12.6342 42.6394C12.662 42.4741 12.7193 42.325 12.7554 42.1629L12.8176 41.9373C12.8209 41.9251 12.8209 41.9129 12.8225 41.9007C13.7192 38.364 16.4861 35.8122 19.7795 35.484C19.8647 36.5812 20.1832 37.7353 20.4682 38.7625C20.5927 39.2097 20.7073 39.6234 20.7843 39.9786L20.7859 39.9891C18.0927 42.9638 15.4872 47.4803 15.2235 50.5926C13.9854 49.4824 13.1273 47.9763 12.7424 46.2821L12.7423 46.2819ZM17.2377 52.4177C16.965 52.2352 16.8045 51.9192 16.7505 51.4501C16.5081 49.3624 18.5126 45.1548 21.1993 41.8763L23.6607 53.1736C21.4056 53.9116 19.0949 53.6558 17.2376 52.4178L17.2377 52.4177ZM29.7013 62.8468C30.8059 63.1042 32.4814 64.058 33.8054 64.9393C33.1167 64.7063 32.3519 64.4115 31.6076 64.0832L27.7279 62.5975C26.9164 62.1976 26.887 61.8058 26.8124 60.8618C26.7797 60.4578 26.7461 60.0253 26.6438 59.5716L22.3039 39.6519C22.222 39.2724 22.0992 38.8293 21.9657 38.3528C21.5219 36.7571 20.916 34.5742 21.657 33.5961C22.0418 33.0903 22.8189 32.7441 23.4691 32.7441C23.6149 32.7441 23.7549 32.7612 23.8818 32.7979C26.164 33.4601 26.3392 34.8562 26.4726 37.4749C26.4914 37.8422 26.5094 38.2169 26.5389 38.5948L28.0014 57.6423C28.048 58.0113 28.0497 58.4568 28.0538 58.9211C28.0644 60.5053 28.0832 62.474 29.7013 62.847L29.7013 62.8468ZM29.608 42.0465C29.703 42.3487 29.974 42.5621 30.2909 42.5866C30.2983 42.5866 30.4383 42.5939 30.4473 42.5939C30.5013 42.5955 30.5562 42.5971 30.6119 42.6061C32.0236 42.8472 32.4674 43.9949 33.0733 45.8479L33.233 46.3293C34.5824 50.3253 34.5497 54.6797 33.6219 55.7565C33.5056 55.8925 33.4328 55.8982 33.4066 55.8982H33.3992C32.7024 55.6188 30.4072 52.5188 29.653 51.4989C29.3648 51.1088 29.1691 50.8481 29.0167 50.6584L28.1578 39.4644C28.7973 40.2007 29.3009 41.0617 29.608 42.0465L29.608 42.0465ZM27.6755 33.7174C27.6771 33.9121 27.6395 34.1198 27.5797 34.3348C27.158 33.0267 26.2859 31.8904 24.3133 31.3186C22.9933 30.9342 21.2819 31.5287 20.4164 32.6675C20.1306 33.0421 19.9587 33.473 19.8612 33.9324C19.1848 33.9821 18.5306 34.1067 17.896 34.3046L17.7175 34.2199C15.2978 33.0747 12.7955 31.8912 12.2205 29.2839C11.9568 28.0866 12.0625 26.4006 12.9173 25.5363C12.919 25.5347 14.0031 24.4408 14.2635 24.1753C16.0764 22.8989 15.1274 18.0714 14.4109 16.3991C14.465 15.3239 15.6826 7.65207 16.5579 2.32095C29.5783 8.53805 27.6999 33.3939 27.6753 33.7171L27.6755 33.7174ZM4.12836 4.30002C6.68473 1.93462 10.5506 1.0672 15.0657 1.8191C13.3552 12.2 12.9376 15.3026 12.8835 16.3247C12.7312 16.6163 12.5994 16.9217 12.5003 17.2239C12.4774 17.2948 12.4643 17.3705 12.4618 17.4463C12.4618 17.4691 12.4078 19.7562 12.2465 20.7679C12.2047 21.0318 11.9845 22.5981 11.7069 24.5742C10.4598 25.9564 10.3746 28.1304 10.7013 29.6102C10.7529 29.8448 10.8397 30.0501 10.9142 30.2675L10.4335 33.7333C8.45276 33.8905 6.29997 33.985 5.53693 33.906C3.95655 29.9565 2.49172 17.702 1.85781 12.3955C1.74481 11.4531 1.6531 10.6875 1.58595 10.1629C1.3968 8.71878 1.95116 6.31351 4.12849 4.30009L4.12836 4.30002Z" fill="#6F55F2"/>
</svg>
