<svg width="66" height="68" viewBox="0 0 66 68" fill="none" xmlns="http://www.w3.org/2000/svg">
<rect width="66" height="68" rx="5" transform="matrix(-1 0 0 1 66 0)" fill="#D7327A"/>
<path d="M40.0928 16.4838C40.2379 16.6398 40.4553 16.7224 40.6809 16.6849C41.401 16.5657 42.1367 16.5349 42.8657 16.5915C43.2269 16.6196 43.5438 16.35 43.5722 15.9884C43.6015 15.626 43.3296 15.3099 42.9687 15.2822C42.1341 15.2171 41.2925 15.2525 40.4682 15.3887C40.11 15.4474 39.8677 15.786 39.9268 16.1431C39.9481 16.2758 40.0079 16.3926 40.0927 16.4838L40.0928 16.4838Z" fill="white"/>
<path d="M36.6708 40.0204L24.1066 54.5565C23.4479 55.3185 23.4683 56.4494 24.1535 57.1862C24.2019 57.2381 24.2534 57.2879 24.3084 57.3352L26.773 59.4656C27.5953 60.1762 28.8419 60.0853 29.5525 59.263L42.1176 44.7277C42.7446 44.0017 42.7511 42.9427 42.1602 42.2078L49.2678 33.1411C53.3976 29.2453 53.6198 22.7188 49.7468 18.5546C49.2899 18.0635 48.7866 17.617 48.2491 17.2261C47.9563 17.0123 47.5453 17.0771 47.3315 17.3707C47.1177 17.6635 47.1833 18.0738 47.4761 18.2884C47.9453 18.6297 48.3854 19.021 48.7843 19.4499C52.1806 23.1015 51.9729 28.8362 48.3212 32.2325C44.6696 35.6288 38.9349 35.421 35.5386 31.7694C33.8623 29.967 33.0044 27.5498 33.142 25.0985L35.5061 23.4184C34.7379 25.7659 35.2307 28.4509 37.0284 30.3839C39.6609 33.2142 44.1049 33.3748 46.9349 30.7427C49.7652 28.1103 49.9258 23.6662 47.2937 20.8363C44.6768 18.0226 40.2716 17.8496 37.4391 20.4329L27.8194 27.2703L26.5065 25.5087L35.924 19.048C35.9386 19.0381 35.9448 19.0234 35.9583 19.0124C35.9709 19.0021 35.9875 18.9985 36.0002 18.9867C36.1601 18.838 36.3236 18.6971 36.4906 18.5617C36.7734 18.3342 36.819 17.9211 36.5916 17.6383C36.3661 17.3633 35.9505 17.3111 35.6686 17.5378C35.4937 17.6783 35.323 17.8281 35.1556 17.9816L25.6517 24.5013C24.9657 23.9777 24.0014 23.9481 23.2847 24.4814L7.8794 35.9608C7.00784 36.6101 6.82777 37.8468 7.47583 38.7188L9.42232 41.3311C9.46545 41.3894 9.51212 41.4451 9.55973 41.4963C10.245 42.2331 11.3707 42.3352 12.1791 41.7334L27.5862 30.2539C28.0082 29.9391 28.2829 29.4786 28.3582 28.958C28.3811 28.8013 28.3787 28.6467 28.3651 28.4928L31.8213 26.036C31.9245 28.4875 32.8872 30.848 34.5754 32.6631C36.399 34.6238 38.8119 35.7056 41.2909 35.9136L38.3118 39.3504C38.2147 39.3431 38.116 39.3356 38.0169 39.3428C37.4952 39.381 37.0161 39.6217 36.6716 40.0198L36.6708 40.0204ZM46.3329 21.7306C48.4717 24.0301 48.3408 27.6413 46.0413 29.78C43.7418 31.9188 40.1306 31.7879 37.9919 29.4884C35.8532 27.1889 35.9833 23.5768 38.2827 21.4382C40.5823 19.2994 44.1942 19.4311 46.3329 21.7306ZM10.4778 40.5447L8.53128 37.9323C8.31522 37.642 8.37614 37.2301 8.66579 37.0133L24.0711 25.5339C24.3406 25.3335 24.7155 25.3667 24.9439 25.6122C24.9601 25.6297 24.9759 25.6483 24.9909 25.6684L26.937 28.2803C27.042 28.421 27.0855 28.5943 27.0608 28.7682C27.0354 28.9414 26.9439 29.0952 26.8033 29.1994L25.2301 30.3718L24.1186 29.176C23.8714 28.9102 23.4559 28.8956 23.1905 29.1424C22.9251 29.3893 22.9096 29.8047 23.1569 30.0705L24.1709 31.1607L21.6453 33.042L20.2398 31.5308C19.9925 31.265 19.5771 31.2504 19.3117 31.4972C19.0463 31.7441 19.0308 32.1595 19.2781 32.4253L20.5862 33.8318L18.0606 35.7131L16.361 33.8857C16.1138 33.6199 15.6984 33.6053 15.4329 33.8521C15.1675 34.099 15.1521 34.5144 15.3993 34.7802L17.0008 36.5021L14.4752 38.3834L12.4822 36.2405C12.235 35.9747 11.8195 35.9601 11.5541 36.2069C11.2887 36.4538 11.2732 36.8692 11.5205 37.135L13.4156 39.1726L11.3979 40.6763C11.1086 40.8936 10.7002 40.8451 10.478 40.5441L10.4778 40.5447ZM41.1236 43.869L28.5586 58.4042C28.3221 58.6782 27.9066 58.708 27.6322 58.4719L25.1675 56.3415C24.8868 56.1001 24.865 55.6876 25.0999 55.4151L26.7461 53.5111L28.7202 55.6336C28.9674 55.8994 29.3829 55.9141 29.6483 55.6672C29.9137 55.4204 29.9291 55.005 29.6819 54.7391L27.6095 52.511L29.6687 50.1282L31.3495 51.9353C31.5967 52.2011 32.0121 52.2158 32.2776 51.9689C32.543 51.7221 32.5584 51.3067 32.3112 51.0409L30.533 49.129L32.5921 46.7462L33.9796 48.238C34.2268 48.5038 34.6423 48.5184 34.9077 48.2716C35.1731 48.0247 35.1886 47.6093 34.9413 47.3435L33.4564 45.747L35.5156 43.3642L36.6089 44.5397C36.8561 44.8055 37.2716 44.8202 37.537 44.5733C37.8024 44.3264 37.8178 43.911 37.5706 43.6452L36.3791 42.3642L37.6627 40.8795C37.7772 40.7472 37.9369 40.6667 38.1114 40.6538C38.1983 40.6478 38.2822 40.6592 38.3621 40.6855C38.3633 40.6859 38.3656 40.686 38.3667 40.6865C38.4474 40.7135 38.5229 40.7557 38.5891 40.8133L41.0533 42.9434C41.0723 42.9598 41.0897 42.9769 41.1059 42.9943C41.3355 43.238 41.3422 43.6151 41.1229 43.8694L41.1236 43.869ZM45.9551 35.2374L41.1872 41.3191L39.5627 39.9145L43.0276 35.9172C44.0246 35.8356 45.0097 35.6091 45.9551 35.2373L45.9551 35.2374Z" fill="white"/>
</svg>
